# xmcd
#
# Track frame offsets:
#	150
#	13644
#	30959
#	49551
#	92022
#	107935
#	141392
#	167000
#	205670
#	240666
#
# Disc length: 3417 seconds
#
# Revision: 0
# Processed by: cddbd v1.5.2PL0 Copyright (c) Steve Scherf et al.
# Submitted via: audiograbber 1.83.01
#
DISCID=790d570a
DTITLE=Folimanka blues - Kudlanka
DYEAR=2004
DGENRE=Blues
TTITLE0=Planeta opic
TTITLE1=Ta pravá
TTITLE2=Zahradòaèky
TTITLE3=Fernet Blues
TTITLE4=Guinness
TTITLE5=Galerie
TTITLE6=Aquarium
TTITLE7=Reinkarnaèní Blues
TTITLE8=Kudlanka
TTITLE9=Tuneláø
EXTD=
EXTT0=
EXTT1=
EXTT2=
EXTT3=
EXTT4=
EXTT5=
EXTT6=
EXTT7=
EXTT8=
EXTT9=
PLAYORDER=
